<mxfile host="app.diagrams.net" modified="2023-07-22T03:56:52.329Z" agent="Mozilla/5.0 (Macintosh; Intel Mac OS X 10_15_7) AppleWebKit/537.36 (KHTML, like Gecko) Chrome/114.0.0.0 Safari/537.36" version="21.3.8" etag="z3gO1GHaHRmsysyaNoOD" type="github">
  <diagram name="第 1 页" id="JEy3h76rAq2DWsagDeNu">
    <mxGraphModel>
      <root>
        <mxCell id="0" />
        <mxCell id="1" parent="0" />
      </root>
    </mxGraphModel>
  </diagram>
</mxfile>
